<?xml version="1.0" encoding="UTF-8" standalone="no"?>
<!-- Created with Inkscape (http://www.inkscape.org/) -->

<svg
   xmlns:dc="http://purl.org/dc/elements/1.1/"
   xmlns:cc="http://creativecommons.org/ns#"
   xmlns:rdf="http://www.w3.org/1999/02/22-rdf-syntax-ns#"
   xmlns:svg="http://www.w3.org/2000/svg"
   xmlns="http://www.w3.org/2000/svg"
   xmlns:xlink="http://www.w3.org/1999/xlink"
   xmlns:sodipodi="http://sodipodi.sourceforge.net/DTD/sodipodi-0.dtd"
   xmlns:inkscape="http://www.inkscape.org/namespaces/inkscape"
   width="1024"
   height="768"
   id="svg2"
   version="1.1"
   inkscape:version="0.48.2 r9819"
   sodipodi:docname="sea-usf.svg"
   inkscape:export-filename="/home/thomas/Bilder/usf/sea/sea-foreground.png"
   inkscape:export-xdpi="90"
   inkscape:export-ydpi="90">
  <defs
     id="defs4">
    <linearGradient
       id="linearGradient3763">
      <stop
         style="stop-color:#3dd0ee;stop-opacity:1"
         offset="0"
         id="stop3765" />
      <stop
         style="stop-color:#16234c;stop-opacity:1;"
         offset="1"
         id="stop3767" />
    </linearGradient>
    <linearGradient
       inkscape:collect="always"
       xlink:href="#linearGradient3763"
       id="linearGradient3769"
       x1="0"
       y1="284.36218"
       x2="0"
       y2="1052.3622"
       gradientUnits="userSpaceOnUse" />
  </defs>
  <sodipodi:namedview
     id="base"
     pagecolor="#ffffff"
     bordercolor="#666666"
     borderopacity="1.0"
     inkscape:pageopacity="0.0"
     inkscape:pageshadow="2"
     inkscape:zoom="0.77734375"
     inkscape:cx="512"
     inkscape:cy="384"
     inkscape:document-units="px"
     inkscape:current-layer="svg2"
     showgrid="false"
     showguides="true"
     inkscape:guide-bbox="true"
     inkscape:window-width="1280"
     inkscape:window-height="776"
     inkscape:window-x="0"
     inkscape:window-y="24"
     inkscape:window-maximized="1">
    <sodipodi:guide
       orientation="1,0"
       position="1024,768"
       id="guide2987" />
    <sodipodi:guide
       orientation="0,1"
       position="0,0"
       id="guide2989" />
    <sodipodi:guide
       orientation="1,0"
       position="0,768"
       id="guide2991" />
    <sodipodi:guide
       orientation="0,1"
       position="1024,768"
       id="guide2993" />
  </sodipodi:namedview>
  <metadata
     id="metadata7">
    <rdf:RDF>
      <cc:Work
         rdf:about="">
        <dc:format>image/svg+xml</dc:format>
        <dc:type
           rdf:resource="http://purl.org/dc/dcmitype/StillImage" />
        <dc:title />
      </cc:Work>
    </rdf:RDF>
  </metadata>
  <g
     inkscape:label="background"
     inkscape:groupmode="layer"
     id="layer1"
     transform="translate(0,-284.36218)">
    <rect
       style="fill:url(#linearGradient3769);fill-opacity:1;stroke:none"
       id="rect2985"
       width="1023.9999"
       height="768"
       x="1.8546146e-14"
       y="284.36218"
       inkscape:export-filename="/home/thomas/Bilder/usf/sea/sea-background.png"
       inkscape:export-xdpi="90"
       inkscape:export-ydpi="90" />
  </g>
  <g
     inkscape:groupmode="layer"
     id="layer2"
     inkscape:label="middle">
    <rect
       style="fill:#c5a44e;fill-opacity:1;stroke:#68512e;stroke-width:4;stroke-miterlimit:4;stroke-opacity:1;stroke-dasharray:none"
       id="rect3772"
       width="400"
       height="55"
       x="312"
       y="540"
       rx="15"
       ry="15" />
    <rect
       ry="15"
       rx="15"
       y="350"
       x="700"
       height="55"
       width="200"
       id="rect3774"
       style="fill:#c5a44e;fill-opacity:1;stroke:#68512e;stroke-width:4;stroke-miterlimit:4;stroke-opacity:1;stroke-dasharray:none" />
    <rect
       style="fill:#c5a44e;fill-opacity:1;stroke:#68512e;stroke-width:4;stroke-miterlimit:4;stroke-opacity:1;stroke-dasharray:none"
       id="rect3776"
       width="250"
       height="55"
       x="115"
       y="250"
       rx="15"
       ry="15" />
  </g>
  <g
     inkscape:groupmode="layer"
     id="layer3"
     inkscape:label="foreground">
    <path
       style="fill:#725130;fill-opacity:1;stroke:#2f1c0a;stroke-width:2;stroke-linecap:butt;stroke-linejoin:miter;stroke-miterlimit:4;stroke-opacity:1;stroke-dasharray:none"
       d="m 444.5,467.875 c -6.35087,9.06583 -13.95969,17.82868 -17.15625,27.625 -32.60123,25.14895 -53.65384,55.23864 -60.84375,79.5 43.82956,-6.513 67.92715,-17.28969 94.28125,-33.0625 10.63309,3.51114 23.16686,1.30775 35.21875,0.5625 0.14182,-7.15107 0.0115,-13.9898 -3.09375,-20.65625 C 494.91097,520.58069 496.90223,519.30681 499,518 l -3.625,-14 3,-4.25 -13.25,-20.75 -4.875,1.375 -16.75,-7.875 c -2.40792,1.24469 -4.76454,2.53976 -7.09375,3.84375 -3.47519,-3.40244 -7.59358,-5.94482 -11.90625,-8.46875 z m 1.40625,7.28125 c 1.79825,1.29697 3.51344,2.73036 5.15625,4.28125 -4.94872,2.93944 -9.71875,5.95599 -14.28125,9.125 2.58272,-4.88533 5.51189,-9.47452 9.125,-13.40625 z m 42.03125,49.8125 c 1.3929,4.17789 2.24641,8.35336 2.5625,12.53125 -7.30952,1.43514 -14.98054,1.05204 -22.75,0.1875 6.38158,-3.94798 13.04421,-8.19191 20.1875,-12.71875 z"
       id="path3812"
       inkscape:connector-curvature="0" />
    <path
       style="fill:#f26d00;fill-opacity:1;stroke:#d20000;stroke-width:2;stroke-linecap:butt;stroke-linejoin:miter;stroke-miterlimit:4;stroke-opacity:1;stroke-dasharray:none"
       d="m 304.27622,262.23744 c 1.51608,9.39966 0.6715,27.46881 4.54823,28.19898 3.87673,0.73017 7.88358,-17.88968 11.82537,-26.83452 9.55127,4.39662 26.21898,16.24914 28.65382,13.18985 2.43484,-3.05929 -12.43181,-17.28325 -18.64772,-25.92488 5.9127,-7.27716 20.03445,-19.1255 17.73808,-21.83148 -2.29637,-2.70598 -21.01631,6.45945 -31.52446,9.68918 -7.42877,-9.39967 -15.6175,-22.50928 -19.57222,-21.66731 -3.95472,0.84196 1.28919,17.03347 3.48203,28.73572 -8.94484,4.69983 -28.53832,10.74548 -27.88588,14.62517 0.65244,3.87969 20.8765,1.28086 31.38275,1.81929 z"
       id="path3779"
       inkscape:connector-curvature="0"
       sodipodi:nodetypes="csczczczczc" />
    <path
       style="fill:#63b5af;fill-opacity:1;stroke:#0d3937;stroke-width:2;stroke-linecap:round;stroke-linejoin:round;stroke-miterlimit:4;stroke-opacity:1;stroke-dasharray:none"
       d="m 749.25,356.75 c -5,2.33333 -13.97584,2.81815 -13.58579,6.46967 0.39005,3.65152 29.42792,13.41972 31.67678,11.02513 2.24886,-2.39459 -3.90007,-8.16955 -5.09099,-13.7448 0,0 29.45833,9.16667 30.5,7 1.04167,-2.16667 7.1658,-11.44545 6.25,-13 -0.9158,-1.55455 -8.66667,-1.16667 -13,-1.75 4.41748,-0.16477 12.18283,-0.18779 13.25,-1.375 1.06717,-1.18721 0.72326,-17.07136 -1,-18.875 -1.72326,-1.80364 -8.33333,4.66444 -13,5.375 4.33333,-2.08333 11.09203,-6.16621 11,-10.125 -0.092,-3.95879 -15.17773,-15.5488 -18.25,-15.75 -3.07227,-0.2012 -4.08333,6.29167 -5.75,12.125 0.0833,-6.33333 4.19812,-11.62107 1,-13.625 -3.19812,-2.00393 -19.05728,-2.86966 -21.78141,-1.04917 -2.72413,1.82048 1.74863,9.87838 2.61352,14.51256 -2.05227,-5.2102 -4.47479,-12.75145 -8.58211,-12.71339 -4.10732,0.0381 -15.66222,13.66604 -16.5,15.875 -0.83778,2.20896 5.96837,6.71983 9.75,9.625 -4.25,-1.83333 -11.04424,-7.90236 -12.75,-5.5 -1.70576,2.40236 -4.80956,13.22606 -3.5,15.75 1.30956,2.52394 17.83333,6.5 26.75,9.75 z"
       id="path3802"
       inkscape:connector-curvature="0"
       sodipodi:nodetypes="czzczzczzczzczzczzczzc" />
    <path
       style="opacity:0.98000004;fill:#368d29;fill-opacity:1;stroke:#183a13;stroke-width:2;stroke-linecap:butt;stroke-linejoin:miter;stroke-miterlimit:4;stroke-opacity:1;stroke-dasharray:none"
       d="m 140.0574,292.66738 c -10.04191,0.0772 -11.25479,5.65686 -10.96016,9.54595 0.29463,3.88909 22.98097,11.66726 22.98097,11.66726 0,0 0.2357,60.57549 8.48528,60.81119 8.24958,0.2357 0.69524,-37.39757 13.43503,-51.6188 22.12869,17.2909 0.40974,97.23709 13.43503,96.16652 13.02529,-1.07057 -4.68211,-71.38205 18.38478,-98.28784 10.63261,-1.62391 24.25183,-3.46131 29.34493,-10.25305 5.09309,-6.79174 3.9329,-11.98358 -8.13173,-15.2028 -12.06463,-3.21921 -19.06965,0.0452 -27.57717,0.70711 -8.50752,0.66189 -8.88878,-5.01722 -18.38477,-5.3033 -9.496,-0.28607 -13.41308,3.40943 -21.2132,5.3033 -7.80012,1.89387 -9.75709,-3.61268 -19.79899,-3.53554 z"
       id="path3808"
       inkscape:connector-curvature="0"
       sodipodi:nodetypes="zzczczczzzzzz" />
    <path
       style="fill:#368d29;fill-opacity:1;stroke:#183a13;stroke-width:2;stroke-linecap:butt;stroke-linejoin:miter;stroke-miterlimit:4;stroke-opacity:1;stroke-dasharray:none"
       d="m 802.25,410 c 5.99189,13.33941 4.49463,32.11125 9.35355,32.83794 4.85893,0.7267 1.4285,-18.42127 12.64645,-33.83794 10.5829,31.16703 -0.85943,84.42466 8.5,84.5 9.35943,0.0753 3.58333,-51.75 15.5,-82.5 8.96997,18.9041 5.48384,53.2203 11,53 5.51616,-0.2203 2.28769,-35.11612 9,-54 0,0 5.67001,-1.00676 8.5,-8.5 2.82999,-7.49324 -10.77899,-10.79583 -19.05546,-10.52513 -8.27646,0.27071 -17.16602,5.75332 -25.94454,5.52513 -8.77852,-0.22819 -15.4591,-7.28174 -24.96967,-6.81802 -9.51057,0.46372 -14.36544,5.68016 -17.13084,10.4948 C 786.8841,404.99141 802.25,410 802.25,410 z"
       id="path3810"
       inkscape:connector-curvature="0"
       sodipodi:nodetypes="czczczczzzzzc" />
    <path
       style="fill:#368d29;fill-opacity:1;stroke:#183a13;stroke-width:2;stroke-linecap:butt;stroke-linejoin:miter;stroke-miterlimit:4;stroke-opacity:1;stroke-dasharray:none"
       d="m 691.75024,589.77818 c 0.25103,9.14851 -26.5,24.5 -26.5,24.5 -9.01041,30.31371 -2.79711,56.00659 -9,57 -6.20289,0.99341 -4.30271,-32.25149 -16,-56 -13.42123,27.49322 0.90007,82.4396 -10,83.5 -10.90007,1.0604 -2.14696,-53.78224 -21,-89.5 0,0 -19.52323,-7.93591 -17,-17.5 2.52323,-9.56409 23.39292,-9.79484 33.55025,-9.79289 10.15734,0.002 11.57807,5.38959 24.5962,5.52512 13.01812,0.13554 16.50599,-4.13178 27.2071,-4.78248 10.70112,-0.65071 13.89542,-2.09826 14.14645,7.05025 z"
       id="path3821"
       inkscape:connector-curvature="0"
       sodipodi:nodetypes="zczczczzzzz" />
    <path
       style="fill:#368d29;fill-opacity:1;stroke:#183a13;stroke-width:2;stroke-linecap:butt;stroke-linejoin:miter;stroke-miterlimit:4;stroke-opacity:1;stroke-dasharray:none"
       d="m 353,604 c 12.88881,28.20647 -3.27695,59.12731 9,59.5 12.27695,0.37269 -0.78304,-33.34377 15,-52 13.3287,16.85416 0.98427,26.52247 10.5,28 9.51573,1.47753 -0.5,-16.58304 16.5,-29.5 13.41672,22.41661 -1.96426,41.9693 9,43 10.96426,1.0307 2.47879,-20.30303 15.5,-43 0,0 16.51226,-6.96861 15.5,-16.5 -1.01226,-9.53139 -7.32427,-3.88944 -21.5,-11.5 -14.17573,-7.61056 -14.25051,5.30497 -27.5,7 -13.24949,1.69503 -9.28046,-8.44511 -24,-5.5 -14.71954,2.94511 -22.13717,-2.68352 -25,7.5 -2.86283,10.18352 7,13 7,13 z"
       id="path3825"
       inkscape:connector-curvature="0"
       sodipodi:nodetypes="czczczczzzzzc" />
  </g>
</svg>
