/* XPM */
/* From the Gnome icon theme. */
static const char* player_rewind_xpm[] = {
/* columns rows colors chars-per-pixel */
"16 16 30 1",
"  c #3D3F3D",
". c #444644",
"X c #464744",
"o c #4B4C4A",
"O c #535452",
"+ c #60615F",
"@ c #646462",
"# c #686866",
"$ c #757675",
"% c #868786",
"& c #9B9B9A",
"* c #A1A1A0",
"= c #A8A8A6",
"- c #A9AAA8",
"; c #B3B3B2",
": c #BABBB8",
"> c #BABCB8",
", c #C5C7C4",
"< c #DBDBDA",
"1 c #E2E3E1",
"2 c #E3E4E2",
"3 c #E3E4E3",
"4 c #E5E6E5",
"5 c #EDEDEC",
"6 c #EEEEED",
"7 c #F1F2F1",
"8 c #FBFBFB",
"9 c #FEFEFD",
"0 c gray100",
"q c None",
/* pixels */
"qqqqqqqqqqqqqqqq",
"qqqqqqqqqqqqqqqq",
"qqqqqqqqqqqqqqqq",
"qqqqqq Xqqqq Xqq",
"qqqqqo-Xqqqo-Xqq",
"qqq.@<8Xq.@<8Xqq",
"qqo&3:2Xo&3:2Xqq",
"qX=0>,5X=0>,5Xqq",
"qqO*617XO*617Xqq",
"qqq$#49Xq$#49Xqq",
"qqqqq+;Xqqq+;Xqq",
"qqqqqq%Xqqqq%Xqq",
"qqqqqqqqqqqqqqqq",
"qqqqqqqqqqqqqqqq",
"qqqqqqqqqqqqqqqq",
"qqqqqqqqqqqqqqqq"
};
