/* XPM */
/* From the Gnome icon theme. */
static const char* player_end_xpm[] = {
/* columns rows colors chars-per-pixel */
"16 16 51 1",
"  c #40403E",
". c #464744",
"X c #484846",
"o c #494A47",
"O c #4A4B47",
"+ c #4A4B48",
"@ c #4B4C49",
"# c #4B4D49",
"$ c #4B4E49",
"% c #4C4D4A",
"& c #4E4F4C",
"* c #535451",
"= c #555753",
"- c #575955",
"; c #585A56",
": c #595B57",
"> c #5A5C58",
", c #5B5D58",
"< c #5B5D59",
"1 c #5F615D",
"2 c #60615C",
"3 c #60615D",
"4 c #6A6B69",
"5 c #6E6F6D",
"6 c #70706F",
"7 c #7B7B7A",
"8 c #A5A6A5",
"9 c #A9AAA8",
"0 c #ACADAC",
"q c #B1B2B0",
"w c #B8BAB6",
"e c #BABBB8",
"r c #BCBDBB",
"t c #BDBDBC",
"y c gray74",
"u c #C1C2BF",
"i c #C6C8C5",
"p c #C8C9C7",
"a c #CECFCD",
"s c #D6D7D5",
"d c #DEDEDD",
"f c #E1E1E0",
"g c #E2E2E1",
"h c #E2E3E1",
"j c #E8E9E8",
"k c #EAEAE9",
"l c #EDEEED",
"z c #EEEEED",
"x c #F6F6F6",
"c c #FBFBFB",
"v c None",
/* pixels */
"vvvvvvvvvvvvvvvv",
"vvvvvvvvvvvvvvvv",
"vvvvvvvvvvvvvvvv",
"v. vvvv. vvv===v",
"v.9&vvv.9&vv-f1v",
"voxd4Xvoxd4X-u:v",
"v+fwg8%Ofwg8;p>v",
"v@kiext+kiexra:v",
"v#zhl0*@zhl0:s>v",
"v$cj56v$cj56>s,v",
"v.q2yvv.q3yv<s<v",
"v.7vvvv.7vvv===v",
"vvvvvvvvvvvvvvvv",
"vvvvvvvvvvvvvvvv",
"vvvvvvvvvvvvvvvv",
"vvvvvvvvvvvvvvvv"
};
