/* XPM */
/* From the Gnome icon theme. */
static const char* player_forward_xpm[] = {
/* columns rows colors chars-per-pixel */
"16 16 38 1",
"  c #40403E",
". c #464744",
"X c #484846",
"o c #494A47",
"O c #4A4B47",
"+ c #4A4B48",
"@ c #4B4C49",
"# c #4B4D49",
"$ c #4B4E49",
"% c #4C4D4A",
"& c #4E4F4C",
"* c #535451",
"= c #60615C",
"- c #60615D",
"; c #6A6B69",
": c #6E6F6D",
"> c #70706F",
", c #7B7B7A",
"< c #A5A6A5",
"1 c #A9AAA8",
"2 c #ACADAC",
"3 c #B1B2B0",
"4 c #B8BAB6",
"5 c #BABBB8",
"6 c #BDBDBC",
"7 c gray74",
"8 c #C6C8C5",
"9 c #DEDEDD",
"0 c #E1E1E0",
"q c #E2E2E1",
"w c #E2E3E1",
"e c #E8E9E8",
"r c #EAEAE9",
"t c #EDEEED",
"y c #EEEEED",
"u c #F6F6F6",
"i c #FBFBFB",
"p c None",
/* pixels */
"pppppppppppppppp",
"pppppppppppppppp",
"pppppppppppppppp",
"pp. pppp. pppppp",
"pp.1&ppp.1&ppppp",
"ppou9;Xpou9;Xppp",
"pp+04q<%O04q<%pp",
"pp@r85u6+r85u6.p",
"pp#ywt2*@ywt2*pp",
"pp$ie:>p$ie:>ppp",
"pp.3=7pp.3-7pppp",
"pp.,pppp.,pppppp",
"pppppppppppppppp",
"pppppppppppppppp",
"pppppppppppppppp",
"pppppppppppppppp"
};
