/* XPM */
/* From the Gnome icon theme. */
static const char* player_stop_xpm[] = {
/* columns rows colors chars-per-pixel */
"16 16 42 1",
"  c #555753",
". c #ADAFAB",
"X c #B1B3AF",
"o c #B5B6B3",
"O c #B8BAB6",
"+ c #B9BAB7",
"@ c #BCBDBA",
"# c #BDBEBB",
"$ c #C0C1BE",
"% c #C3C4C1",
"& c #C3C5C2",
"* c #C7C8C5",
"= c #C7C9C6",
"- c #CBCCC9",
"; c #CDCFCC",
": c #CECFCD",
"> c #D1D2D0",
", c #D2D3D1",
"< c #D5D6D4",
"1 c #D8D9D7",
"2 c #D9DAD8",
"3 c #DCDDDB",
"4 c #DDDEDC",
"5 c #DEDFDD",
"6 c #E2E3E1",
"7 c #E3E4E2",
"8 c #E4E4E3",
"9 c #E4E5E3",
"0 c #E5E5E4",
"q c #E5E6E4",
"w c #E6E6E5",
"e c #E7E8E6",
"r c #E8E8E7",
"t c #EAEAE9",
"y c #EAEBEA",
"u c #EDEDEC",
"i c #EDEEED",
"p c #EEEFEE",
"a c #EFEFEE",
"s c #EFF0EF",
"d c #F0F0EF",
"f c None",
/* pixels */
"ffffffffffffffff",
"ffffffffffffffff",
"ffffffffffffffff",
"fff         ffff",
"fff 678900w ffff",
"fff 8.Xo+#r ffff",
"fff qO@$&=y ffff",
"fff e%*-:,i ffff",
"fff t;><24d ffff",
"fff u13555a ffff",
"fff ddsaapp ffff",
"fff         ffff",
"ffffffffffffffff",
"ffffffffffffffff",
"ffffffffffffffff",
"ffffffffffffffff"
};
