/* XPM */
/* From the Gnome icon theme. */
static const char* zoom_original_xpm[] = {
/* columns rows colors chars-per-pixel */
"16 16 68 1",
"  c #2E3436",
". c #464A4A",
"X c #4D5150",
"o c #525655",
"O c #626663",
"+ c #626664",
"@ c #666A67",
"# c #727571",
"$ c #727572",
"% c #757874",
"& c #747875",
"* c #3F6BA2",
"= c #406BA2",
"- c #436EA4",
"; c #446FA5",
": c #486FA1",
"> c #4970A2",
", c #4E76A7",
"< c #4571A8",
"1 c #4773AA",
"2 c #4A76AB",
"3 c #4975AC",
"4 c #4C77AD",
"5 c #4D78AD",
"6 c #4E79AF",
"7 c #4E7AAF",
"8 c #5178A9",
"9 c #507BB0",
"0 c #507CB1",
"q c #527DB2",
"w c #537EB3",
"e c #5581B6",
"r c #5582B6",
"t c #5783B7",
"y c #5A83B2",
"u c #5E85B4",
"i c #5985B9",
"p c #5986B9",
"a c #5B86BA",
"s c #5B88BC",
"d c #5E8ABD",
"f c #5F8ABD",
"g c #5F8BBE",
"h c #6890BE",
"j c #6390C2",
"k c #6491C3",
"l c #6793C5",
"z c #6794C6",
"x c #6A93C0",
"c c #6894C6",
"v c #838682",
"b c #888A85",
"n c #999B96",
"m c #A3A69F",
"M c #8E9FAC",
"N c #8F9FAE",
"B c #96A6B4",
"V c #97A8B5",
"C c #98A8B6",
"Z c #99AAB7",
"A c #ADB0A9",
"S c #B7BAB3",
"D c #9FB1C6",
"F c #9FB2C7",
"G c #D5D7D3",
"H c #DADCD8",
"J c gray100",
"K c None",
/* pixels */
"KKKKbbbbKKKKKKKK",
"KKbnASSAn#KKKKKK",
"KbmChlcxZm#KKKKK",
"KnBajJJzfVnKKKKK",
"bAypJJJkduA$KKKK",
"bS7rsJJgiqS%KKKK",
"bS20eJJtw5S%KKKK",
"bA,36JJ948AbKKKK",
"KvN-<JJ1;FnKKKKK",
"KOmM:*=>DmXKKKKK",
"KKOnGHHGn.&  KKK",
"KKKK+@@+KK ob KK",
"KKKKKKKKKK bob K",
"KKKKKKKKKKK bob ",
"KKKKKKKKKKKK bb ",
"KKKKKKKKKKKKK   "
};
