/* XPM */
/* From the Gnome icon theme. */
static const char* zoom_out_xpm[] = {
/* columns rows colors chars-per-pixel */
"16 16 69 1",
"  c #2E3436",
". c #464A4A",
"X c #4D5150",
"o c #525655",
"O c #626663",
"+ c #626664",
"@ c #666A67",
"# c #727571",
"$ c #727572",
"% c #757874",
"& c #747875",
"* c #3F6BA2",
"= c #406BA2",
"- c #436EA4",
"; c #446FA5",
": c #486FA1",
"> c #4970A2",
", c #4E76A7",
"< c #4571A8",
"1 c #4773AA",
"2 c #4873AA",
"3 c #4873AB",
"4 c #4A76AB",
"5 c #4975AC",
"6 c #4C77AD",
"7 c #4D78AD",
"8 c #4E79AF",
"9 c #4E7AAF",
"0 c #5178A9",
"q c #507BB0",
"w c #507BB2",
"e c #507CB1",
"r c #527DB2",
"t c #5A83B2",
"y c #5E85B4",
"u c #5986B9",
"i c #5B86BA",
"p c #5E8ABD",
"a c #5F8ABD",
"s c #6890BE",
"d c #618DC0",
"f c #6390C2",
"g c #6491C3",
"h c #6793C5",
"j c #6794C6",
"k c #6A93C0",
"l c #6894C6",
"z c #6895C6",
"x c #6A96C7",
"c c #6C99C9",
"v c #709CCD",
"b c #838682",
"n c #888A85",
"m c #999B96",
"M c #A3A69F",
"N c #8E9FAC",
"B c #8F9FAE",
"V c #96A6B4",
"C c #97A8B5",
"Z c #98A8B6",
"A c #99AAB7",
"S c #ADB0A9",
"D c #B7BAB3",
"F c #9FB1C6",
"G c #9FB2C7",
"H c #D5D7D3",
"J c #DADCD8",
"K c gray100",
"L c None",
/* pixels */
"LLLLnnnnLLLLLLLL",
"LLnmSDDSm#LLLLLL",
"LnMZshlkAM#LLLLL",
"LmVifcvjaCmLLLLL",
"nStudzxgpyS$LLLL",
"nD9KKKKKKrD%LLLL",
"nD4KKKKKK7D%LLLL",
"nS,58weq60SnLLLL",
"LbB-<231;GmLLLLL",
"LOMN:*=>FMXLLLLL",
"LLOmHJJHm.&  LLL",
"LLLL+@@+LL on LL",
"LLLLLLLLLL non L",
"LLLLLLLLLLL non ",
"LLLLLLLLLLLL nn ",
"LLLLLLLLLLLLL   "
};
