/* XPM */
/* From the Gnome icon theme. */
static const char* zoom_fit_xpm[] = {
/* columns rows colors chars-per-pixel */
"16 16 67 1",
"  c #2E3436",
". c #464A4A",
"X c #4D5150",
"o c #525655",
"O c #626663",
"+ c #626664",
"@ c #666A67",
"# c #727571",
"$ c #727572",
"% c #757874",
"& c #747875",
"* c #3F6BA2",
"= c #406BA2",
"- c #486FA1",
"; c #4970A2",
": c #4E76A7",
"> c #4873AA",
", c #4873AB",
"< c #4A76AB",
"1 c #4D78AD",
"2 c #4E79AF",
"3 c #4E7AAF",
"4 c #5178A9",
"5 c #507BB0",
"6 c #507BB2",
"7 c #507CB1",
"8 c #527DB2",
"9 c #537EB3",
"0 c #5581B6",
"q c #5582B6",
"w c #5783B7",
"e c #5A83B2",
"r c #5E85B4",
"t c #5885B8",
"y c #5985B9",
"u c #5B88BC",
"i c #5F8BBE",
"p c #608DBF",
"a c #6890BE",
"s c #618DC0",
"d c #618EC0",
"f c #6491C3",
"g c #6793C5",
"h c #6A93C0",
"j c #6894C6",
"k c #6895C6",
"l c #6A96C7",
"z c #6C99C9",
"x c #709CCD",
"c c #838682",
"v c #888A85",
"b c #999B96",
"n c #A3A69F",
"m c #8E9FAC",
"M c #8F9FAE",
"N c #96A6B4",
"B c #97A8B5",
"V c #98A8B6",
"C c #99AAB7",
"Z c #ADB0A9",
"A c #B7BAB3",
"S c #9FB1C6",
"D c #9FB2C7",
"F c #D5D7D3",
"G c #DADCD8",
"H c gray100",
"J c None",
/* pixels */
"JJJJvvvvJJJJJJJJ",
"JJvbZAAZb#JJJJJJ",
"JvnVagjhCn#JJJJJ",
"JbNHHzxHHBbJJJJJ",
"vZeHsklfHrZ$JJJJ",
"vA3qupdiy8A%JJJJ",
"vA<70tyw91A%JJJJ",
"vZ:H2675H4ZvJJJJ",
"JcMHH>,HHDbJJJJJ",
"JOnm-*=;SnXJJJJJ",
"JJObFGGFb.&  JJJ",
"JJJJ+@@+JJ ov JJ",
"JJJJJJJJJJ vov J",
"JJJJJJJJJJJ vov ",
"JJJJJJJJJJJJ vv ",
"JJJJJJJJJJJJJ   "
};
