/* XPM */
/* From the Gnome icon theme. */
static const char* zoom_in_xpm[] = {
/* columns rows colors chars-per-pixel */
"16 16 61 1",
"  c #2E3436",
". c #464A4A",
"X c #4D5150",
"o c #525655",
"O c #626663",
"+ c #626664",
"@ c #666A67",
"# c #727571",
"$ c #727572",
"% c #757874",
"& c #747875",
"* c #3F6BA2",
"= c #406BA2",
"- c #436EA4",
"; c #446FA5",
": c #486FA1",
"> c #4970A2",
", c #4E76A7",
"< c #4571A8",
"1 c #4773AA",
"2 c #4A76AB",
"3 c #4975AC",
"4 c #4C77AD",
"5 c #4D78AD",
"6 c #4E79AF",
"7 c #4E7AAF",
"8 c #5178A9",
"9 c #507BB0",
"0 c #527DB2",
"q c #5A83B2",
"w c #5E85B4",
"e c #5986B9",
"r c #5B86BA",
"t c #5E8ABD",
"y c #5F8ABD",
"u c #6890BE",
"i c #618DC0",
"p c #6390C2",
"a c #6491C3",
"s c #6793C5",
"d c #6794C6",
"f c #6A93C0",
"g c #6894C6",
"h c #838682",
"j c #888A85",
"k c #999B96",
"l c #A3A69F",
"z c #8E9FAC",
"x c #8F9FAE",
"c c #96A6B4",
"v c #97A8B5",
"b c #98A8B6",
"n c #99AAB7",
"m c #ADB0A9",
"M c #B7BAB3",
"N c #9FB1C6",
"B c #9FB2C7",
"V c #D5D7D3",
"C c #DADCD8",
"Z c gray100",
"A c None",
/* pixels */
"AAAAjjjjAAAAAAAA",
"AAjkmMMmk#AAAAAA",
"Ajlbusgfnl#AAAAA",
"AkcrpZZdyvkAAAAA",
"jmqeiZZatwm$AAAA",
"jM7ZZZZZZ0M%AAAA",
"jM2ZZZZZZ5M%AAAA",
"jm,36ZZ948mjAAAA",
"Ahx-<ZZ1;BkAAAAA",
"AOlz:*=>NlXAAAAA",
"AAOkVCCVk.&  AAA",
"AAAA+@@+AA oj AA",
"AAAAAAAAAA joj A",
"AAAAAAAAAAA joj ",
"AAAAAAAAAAAA jj ",
"AAAAAAAAAAAAA   "
};
